<svg width="820" height="220" viewBox="0 0 820 220" fill="none" xmlns="http://www.w3.org/2000/svg">
  <g fill="currentColor">
    <path d="M53 36L70 61L93 28L113 61L141 16L169 61L193 28L213 61L231 36L248 118C250 134 239 147 223 147H78C62 147 51 134 53 118L53 36Z"/>
    <circle cx="67" cy="86" r="12"/>
    <circle cx="233" cy="86" r="12"/>
    <circle cx="108" cy="105" r="16" fill="white"/>
    <circle cx="108" cy="105" r="7"/>
    <circle cx="152" cy="105" r="16" fill="white"/>
    <circle cx="152" cy="105" r="7"/>
    <circle cx="196" cy="105" r="16" fill="white"/>
    <circle cx="196" cy="105" r="7"/>
    <path d="M96 156C87 156 80 163 80 172V205C80 213 87 220 96 220H206C215 220 222 213 222 205V172C222 163 215 156 206 156H96ZM102 169H138L151 182L164 169H200C206 169 210 173 210 179V198C210 204 206 208 200 208H102C96 208 92 204 92 198V179C92 173 96 169 102 169Z"/>
    <circle cx="151" cy="182" r="17" fill="white"/>
    <circle cx="151" cy="182" r="10"/>
    <path d="M320 42H352L387 85V42H420V122H388L353 80V122H320V42Z"/>
    <path d="M434 42H466L501 85V42H534V122H502L467 80V122H434V42Z"/>
    <path d="M551 42H640V66H584V73H634V94H584V98H642V122H551V42Z"/>
    <path d="M321 137H426V161H354V169H421V189H354V196H428V220H321V137Z"/>
    <path d="M441 137H534V161H474V169H526V189H474V220H441V137Z"/>
    <path d="M553 137H585V191H624V220H553V137Z"/>
    <path d="M629 137H663V167H694V137H728V220H694V192H663V220H629V137Z"/>
    <path d="M741 137H775L792 169L809 137H820L786 202V220H753V202L719 137H741Z"/>
  </g>
</svg>
